<?xml version="1.0" encoding="UTF-8" standalone="no"?><svg xmlns:svg="http://www.w3.org/2000/svg" xmlns="http://www.w3.org/2000/svg" version="1.1" style="overflow:visible" viewBox="-150 -150 276 276" height="276px" width="276px"><rect fill-opacity="0" fill="rgb(0,0,0)" height="276" width="276" y="-150" x="-150" /><svg version="1.1" y="-250" x="-266" viewBox="-250 -250 500 500" height="500px" width="500px" style="overflow:visible"><g transform="rotate(0,0,0)" stroke-linejoin="round" fill="#fff"><path stroke-linecap="butt" stroke-linejoin="round" stroke-width="14" stroke-opacity="1" stroke="rgb(0,0,0)" fill="rgb(255,255,255)" d="m-107.2-107.2h214.4v214.4h-214.4z" /></g></svg><svg version="1.1" y="-346" x="-176" viewBox="-250 -250 500 500" height="500px" width="500px" style="overflow:visible"><g transform="rotate(0,0,0)" stroke-linejoin="round" fill="#fff"><path stroke-linecap="butt" stroke-linejoin="round" stroke-width="20" stroke-opacity="1" stroke="rgb(255,255,255)" fill="rgb(255,255,255)" d="m-24-16h48v32h-48z" /></g></svg><svg version="1.1" y="-339" x="-187" viewBox="-250 -250 500 500" height="500px" width="500px" style="overflow:visible"><g transform="rotate(215,0,0)" stroke-linejoin="round" fill="#fff"><path stroke-linecap="butt" stroke-linejoin="round" stroke-width="4" stroke-opacity="1" stroke="rgb(0,0,0)" fill="rgb(0,0,0)" d="m-7.489561-33.973941c4.99356 5.090852 9.98712 3.920826 14.980654 0l-7.490158-16.72632z" /><path stroke-linecap="butt" stroke-linejoin="round" stroke="none" fill="rgb(255,255,255)" d="m-7.489561-33.973941l-7.192172 16.05838c6.883838 4.989348 13.89479 7.439068 21.153105 4.950192c1.724234-8.238828-0.919371-15.214316-4.08889-21.008546z" /><path stroke-linecap="butt" stroke-linejoin="round" stroke="none" fill="rgb(255,255,255)" d="m2.380299-33.973941l2.286354 16.05838l4.625296 3.734172c1.780144-0.924878 3.575936-2.153687 5.389046-3.734172l-7.192172-16.05838h-5.108272z" /><path stroke-linecap="butt" stroke-linejoin="round" stroke-width="4" stroke-opacity="1" stroke="rgb(0,0,0)" fill="none" d="m-7.489561-33.973941l-7.192172 16.058016c9.445202 6.84606 19.129136 8.922446 29.36466 0l-7.192172-16.058017z" /><path stroke-linecap="butt" stroke-linejoin="round" stroke="none" fill="rgb(255,255,255)" d="m-4.668041-17.91712c-3.800212 22.966762-5.655677 45.82994-5.999162 68.61374h20.671482c-0.29937-22.69631-1.939374-45.5507-5.336344-68.61374z" /><path stroke-linecap="butt" stroke-linejoin="round" stroke="none" fill="rgb(255,255,255)" d="m-14.682721-17.91712v68.61374h10.014316v-68.61374z" /><path stroke-linecap="butt" stroke-linejoin="round" stroke="none" fill="rgb(255,255,255)" d="m4.667779-17.91712v68.61374h10.014316v-68.61374z" /><path stroke-linecap="butt" stroke-linejoin="round" stroke-width="4" stroke-opacity="1" stroke="rgb(0,0,0)" fill="none" d="m-14.682721-17.91712v68.617119h29.36466v-68.61712z" /></g></svg></svg>